<svg width="59" height="56" viewBox="0 0 59 56" fill="none" xmlns="http://www.w3.org/2000/svg">
<g filter="url(#filter0_d_635_3238)">
<path d="M17.9439 45.4449C17.8067 45.1787 17.6342 44.9383 17.6338 44.6975C17.6196 36.434 17.6218 28.1705 17.6216 19.907C17.6216 17.9925 17.6216 16.0779 17.6216 14.1369C15.2756 14.1369 12.9753 14.1369 10.5541 14.1369C9.99555 15.5941 9.32285 17.063 8.88089 18.5989C8.56802 19.6862 8.10713 20.7676 8.243 21.9756C8.32241 22.6818 8.14201 23.4132 8.14825 24.1326C8.16399 25.9478 8.49009 27.7135 8.99925 29.4572C10.0628 33.0995 12.0602 36.1532 14.9261 38.5689C15.8231 39.3249 16.0798 40.0419 16.0141 41.0999C15.9488 42.1521 15.9998 43.2117 15.9998 44.4526C15.2679 44.0048 14.6148 43.6909 14.0627 43.2496C12.8818 42.3056 11.6583 41.3865 10.6215 40.2952C7.78249 37.3071 5.79882 33.8302 4.74128 29.7941C4.05212 27.1639 3.90271 24.514 4.05348 21.8499C4.19297 19.385 4.75789 16.9661 5.79285 14.712C6.47029 13.2365 7.3542 11.8576 8.10587 10.4146C8.30952 10.0237 8.57478 9.97427 8.94622 9.97463C14.9542 9.98043 20.9623 9.99952 26.97 9.96343C28.4312 9.95465 29.8517 10.0358 31.2118 10.6048C33.3493 11.4992 35.0592 12.8955 36.2001 14.9423C36.9449 16.2786 37.4765 17.6933 37.4453 19.246C37.4244 20.288 37.3833 21.3459 37.1848 22.3639C36.9157 23.7443 36.2097 24.9483 35.3486 26.0608C33.8033 28.0573 31.7385 29.1851 29.321 29.7131C28.7659 29.8344 28.185 29.8698 27.6147 29.8815C26.4094 29.9061 25.2032 29.8794 23.9977 29.8946C23.6295 29.8992 23.4724 29.7861 23.4789 29.3949C23.497 28.3101 23.5014 27.2244 23.4777 26.1399C23.4681 25.699 23.6677 25.6204 24.0456 25.6257C25.1888 25.6418 26.3323 25.6272 27.4757 25.6324C29.7854 25.6428 31.5379 24.6019 32.6356 22.6188C34.2368 19.7262 32.974 16.2432 30.2857 14.8335C29.3205 14.3274 28.3265 14.1073 27.2584 14.1095C25.4763 14.1133 23.6942 14.1106 21.8631 14.1106C21.8631 14.3835 21.8631 14.6075 21.8631 14.8315C21.8631 25.2235 21.8631 35.6154 21.863 46.0074C21.863 46.8231 21.856 46.8422 21.0902 46.5819C20.0506 46.2286 19.0221 45.8425 17.9439 45.4449Z" fill="#080823"/>
<path d="M10.3763 8.17959C9.90089 8.19961 9.80348 8.03396 10.0955 7.72724C11.5884 6.1592 13.2295 4.77021 15.0626 3.61287C17.3531 2.16671 19.8206 1.15213 22.4667 0.598058C23.4801 0.385847 24.5121 0.239649 25.543 0.140534C26.5518 0.0435429 27.5747 -0.0382689 28.5832 0.0188933C31.3292 0.174532 34.0035 0.695755 36.5627 1.75964C38.8972 2.73012 41.058 3.99786 42.9556 5.65559C44.1343 6.6853 45.2441 7.82845 46.2116 9.05785C47.1957 10.3083 48.0753 11.6707 48.8076 13.0847C50.0207 15.4275 50.8635 17.9148 51.0953 20.5765C51.1933 21.7024 51.3251 22.8254 51.4424 23.9582C49.9157 23.9582 48.5213 23.9582 47.0762 23.9582C47.0762 23.116 47.1941 22.3255 47.0516 21.5856C46.7576 20.0599 46.4104 18.5329 45.9284 17.058C45.2503 14.983 44.1194 13.1362 42.7436 11.4391C40.8125 9.05717 38.452 7.23827 35.6655 5.9841C33.8521 5.1679 31.9765 4.53611 29.973 4.41149C28.794 4.33815 27.6042 4.22172 26.4324 4.30656C25.1002 4.40301 23.7611 4.61403 22.4637 4.93362C20.3974 5.44265 18.4641 6.34434 16.7433 7.58499C15.9902 8.12796 15.2676 8.18889 14.4467 8.18267C13.109 8.17254 11.7712 8.17966 10.3763 8.17959Z" fill="#080823"/>
<path d="M35.5743 28.3347C36.233 27.5285 36.8476 26.743 37.4969 25.987C37.6468 25.8124 37.9147 25.6345 38.129 25.6338C43.6348 25.6146 49.1407 25.6187 54.6466 25.6196C54.7197 25.6196 54.7928 25.6303 55.0001 25.6465C54.7858 25.8787 54.6598 26.0256 54.5231 26.1618C49.4517 31.2201 44.3793 36.2773 39.3069 41.3346C37.6676 42.9691 36.0694 44.6483 34.3617 46.2084C33.8893 46.6399 33.1078 46.8426 32.4387 46.9321C30.6556 47.1707 28.8594 47.3511 27.0627 47.434C26.0467 47.4809 25.0173 47.3097 23.9988 47.194C23.7074 47.1609 23.4406 47.023 23.4515 46.5937C23.4825 45.3694 23.4624 44.1438 23.4624 42.8515C24.18 42.9483 24.867 43.1011 25.558 43.1214C26.919 43.1612 28.2831 43.1551 29.6441 43.1116C30.2468 43.0923 30.8522 42.9664 31.4423 42.8288C31.7599 42.7548 32.1152 42.6213 32.339 42.3998C36.3341 38.4444 40.3123 34.4719 44.2916 30.5006C44.4803 30.3123 44.6461 30.1012 44.9455 29.7612C41.2253 29.7612 37.6472 29.7616 34.0691 29.755C34.0373 29.755 34.0057 29.6612 33.9834 29.626C34.5115 29.1993 35.0272 28.7827 35.5743 28.3347Z" fill="#080823"/>
<path d="M25.9524 18.6514C27.0226 17.4708 28.1613 17.6342 29.0209 18.3654C29.6247 18.8792 29.7838 19.884 29.4394 20.6305C29.1126 21.3387 28.2102 21.8844 27.5017 21.8178C26.6294 21.7357 25.9407 21.0924 25.6685 20.2656C25.4701 19.6629 25.6546 19.1852 25.9524 18.6514Z" fill="#080823"/>
<path d="M29.8557 36.5665C29.6427 37.054 29.4986 37.5422 29.2083 37.9136C28.2885 39.0908 26.8274 38.7179 26.1434 37.9356C25.2874 36.9564 25.4339 35.6851 26.4681 34.8301C27.6555 33.8483 29.4593 34.6493 29.7335 36.0419C29.7649 36.2013 29.8158 36.3567 29.8557 36.5665Z" fill="#080823"/>
</g>
<defs>
<filter id="filter0_d_635_3238" x="0" y="0" width="59" height="55.442" filterUnits="userSpaceOnUse" color-interpolation-filters="sRGB">
<feFlood flood-opacity="0" result="BackgroundImageFix"/>
<feColorMatrix in="SourceAlpha" type="matrix" values="0 0 0 0 0 0 0 0 0 0 0 0 0 0 0 0 0 0 127 0" result="hardAlpha"/>
<feOffset dy="4"/>
<feGaussianBlur stdDeviation="2"/>
<feComposite in2="hardAlpha" operator="out"/>
<feColorMatrix type="matrix" values="0 0 0 0 0 0 0 0 0 0 0 0 0 0 0 0 0 0 0.25 0"/>
<feBlend mode="normal" in2="BackgroundImageFix" result="effect1_dropShadow_635_3238"/>
<feBlend mode="normal" in="SourceGraphic" in2="effect1_dropShadow_635_3238" result="shape"/>
</filter>
</defs>
</svg>
